<?xml version="1.0" encoding="UTF-8" standalone="no"?>
<!-- Created with Inkscape (http://www.inkscape.org/) -->

<svg
   width="32"
   height="32"
   viewBox="0 0 8.4666675 8.466672"
   version="1.1"
   id="svg5"
   inkscape:version="1.1.1 (3bf5ae0d25, 2021-09-20)"
   sodipodi:docname="drawing.svg"
   xmlns:inkscape="http://www.inkscape.org/namespaces/inkscape"
   xmlns:sodipodi="http://sodipodi.sourceforge.net/DTD/sodipodi-0.dtd"
   xmlns="http://www.w3.org/2000/svg"
   xmlns:svg="http://www.w3.org/2000/svg">
  <sodipodi:namedview
     id="namedview7"
     pagecolor="#505050"
     bordercolor="#ffffff"
     borderopacity="1"
     inkscape:pageshadow="0"
     inkscape:pageopacity="0"
     inkscape:pagecheckerboard="1"
     inkscape:document-units="px"
     showgrid="false"
     units="px"
     inkscape:zoom="8"
     inkscape:cx="36.8125"
     inkscape:cy="39.25"
     inkscape:window-width="1920"
     inkscape:window-height="1027"
     inkscape:window-x="-8"
     inkscape:window-y="-8"
     inkscape:window-maximized="1"
     inkscape:current-layer="layer1"
     inkscape:object-paths="true"
     width="467px" />
  <defs
     id="defs2" />
  <g
     inkscape:label="Layer 1"
     inkscape:groupmode="layer"
     id="layer1">
    <circle
       style="fill:#ffb400;fill-opacity:1;fill-rule:evenodd;stroke-width:0.330731"
       id="path157"
       cx="4.233335"
       cy="4.233335"
       r="3.3072929" />
    <path
       d="M 5.877086,3.895817 C 5.882846,4.2770373 5.786258,4.5820134 5.5874367,4.8107463 5.3823418,5.0459667 5.0950575,5.163577 4.7255811,5.163577 c -0.09078,0 -0.2285817,-0.00323 -0.4134164,-0.00973 C 4.1288973,5.145777 3.9910804,5.141681 3.8987111,5.141681 c -0.050968,0 -0.075953,0.033256 -0.074945,0.099766 0.00125,0.085977 0.00796,0.2149438 0.020131,0.3868982 0.013725,0.1719545 0.021235,0.3009206 0.02253,0.3868983 4.133e-4,0.027581 0.0023,0.087212 -0.027948,0.087212 -0.033454,0 -0.067637,-0.012973 -0.1362103,-0.019465 -0.067013,-0.00807 -0.1228395,-0.00522 -0.1562866,-0.00522 -0.028668,0 -0.086253,-0.00171 -0.141921,0.00313 -0.055657,0.00485 -0.1222679,0.021195 -0.1493447,0.021195 -0.039813,0 -0.047476,-0.077936 -0.048233,-0.1282219 -0.00269,-0.1768209 5.303e-4,-0.4436749 0.00949,-0.8005621 0.010573,-0.3568872 0.014516,-0.6245518 0.01184,-0.8029959 -0.00757,-0.506131 -0.034068,-1.0495724 -0.079424,-1.6303248 l -0.00297,-0.0365 c -0.00221,-0.035688 0.018271,-0.053532 0.061306,-0.053532 0.085994,0 0.2150083,8.115e-4 0.3870301,0.00244 0.1736149,0.00162 0.3042165,0.00244 0.3918085,0.00244 0.074849,0 0.187077,-0.00325 0.3366805,-0.00974 0.1496044,-0.00649 0.2618303,-0.00974 0.3366814,-0.00974 0.3519582,0 0.6428343,0.121666 0.8726312,0.3649981 0.2249466,0.238465 0.3401104,0.5369525 0.3454919,0.8954622 z M 5.2756451,3.9323136 C 5.2720035,3.6889823 5.2045752,3.4943171 5.0733805,3.3483172 4.9373159,3.1958296 4.751434,3.1195854 4.5157347,3.1195854 c -0.073257,0 -0.2037493,0.00646 -0.3914785,0.019465 -0.2148021,0.012973 -0.32529,0.025957 -0.3314658,0.03893 -0.010847,0.019465 -0.012238,0.2984874 -0.00413,0.8370626 0.00106,0.068137 0.00413,0.1703321 0.0094,0.3065985 0.00681,0.1362655 0.010771,0.2384653 0.011797,0.3065985 2.186e-4,0.014598 0.017906,0.025956 0.053068,0.034063 0.087855,0.01784 0.3308587,0.026764 0.7290011,0.026764 0.2229585,0 0.3954886,-0.07057 0.5175904,-0.211699 0.1142413,-0.134644 0.1696425,-0.3163319 0.166209,-0.5450638 z"
       style="font-size:4.42149px;line-height:1.25;font-family:'Berlin Sans FB';-inkscape-font-specification:'Berlin Sans FB, Normal';fill:#ffffff;stroke-width:0.308604"
       id="path62930-6"
       sodipodi:nodetypes="ccscsscsscsssscsccscssscccccsccscscsccc" />
  </g>
</svg>
